<?xml version="1.0" encoding="UTF-8" standalone="no"?>
<!-- Created with Inkscape (http://www.inkscape.org/) -->

<svg
   xmlns:dc="http://purl.org/dc/elements/1.1/"
   xmlns:cc="http://creativecommons.org/ns#"
   xmlns:rdf="http://www.w3.org/1999/02/22-rdf-syntax-ns#"
   xmlns:svg="http://www.w3.org/2000/svg"
   xmlns="http://www.w3.org/2000/svg"
   xmlns:sodipodi="http://sodipodi.sourceforge.net/DTD/sodipodi-0.dtd"
   xmlns:inkscape="http://www.inkscape.org/namespaces/inkscape"
   version="1.1"
   width="9000"
   height="1800"
   id="svg2"
   inkscape:version="0.48.4 r9939"
   sodipodi:docname="dxe-banner-philadelphia.outlined.svg">
  <sodipodi:namedview
     pagecolor="#ffffff"
     bordercolor="#666666"
     borderopacity="1"
     objecttolerance="10"
     gridtolerance="10"
     guidetolerance="10"
     inkscape:pageopacity="0"
     inkscape:pageshadow="2"
     inkscape:window-width="1613"
     inkscape:window-height="758"
     id="namedview49"
     showgrid="false"
     inkscape:zoom="0.27466667"
     inkscape:cx="4443.4829"
     inkscape:cy="903.14826"
     inkscape:window-x="3461"
     inkscape:window-y="364"
     inkscape:window-maximized="0"
     inkscape:current-layer="svg2" />
  <metadata
     id="metadata8">
    <rdf:RDF>
      <cc:Work
         rdf:about="">
        <dc:format>image/svg+xml</dc:format>
        <dc:type
           rdf:resource="http://purl.org/dc/dcmitype/StillImage" />
        <dc:title />
      </cc:Work>
    </rdf:RDF>
  </metadata>
  <defs
     id="defs6" />
  <g
     id="text2998-5"
     style="font-size:270.12890625px;font-style:normal;font-weight:normal;line-height:125%;letter-spacing:0px;word-spacing:0px;fill:#afb0b2;fill-opacity:1;stroke:none;font-family:Sans">
    <path
       d="m 3396.7828,1405.731 c 15.4989,15.2493 23.2484,37.7479 23.2486,67.4958 -2e-4,29.7483 -7.7497,52.3719 -23.2486,67.8708 -15.2492,15.2492 -36.8728,22.8737 -64.8709,22.8736 l -51.3719,0 0,85.4947 -52.1218,0 0,-266.9835 103.4937,0 c 27.9981,3e-4 49.6217,7.7498 64.8709,23.2486 m -28.8732,67.4958 c -10e-5,-29.4979 -12.8743,-44.247 -38.6226,-44.2472 l -48.747,0 0,88.1195 48.747,0 c 12.4991,2e-4 21.9985,-3.3746 28.4983,-10.1244 6.7494,-6.7494 10.1242,-17.9987 10.1243,-33.7479"
       id="path2996"
       style="font-size:374.97683716px;font-variant:normal;font-stretch:normal;fill:#afb0b2;font-family:Viga;-inkscape-font-specification:Viga" />
    <path
       d="m 3662.6063,1649.4659 -52.1218,0 0,-107.9933 -97.869,0 0,107.9933 -52.1218,0 0,-266.9835 52.1218,0 0,112.8681 97.869,0 0,-112.8681 52.1218,0 0,266.9835"
       id="path2998"
       style="font-size:374.97683716px;font-variant:normal;font-stretch:normal;fill:#afb0b2;font-family:Viga;-inkscape-font-specification:Viga" />
    <path
       d="m 3773.4295,1649.4659 -52.1218,0 0,-266.9835 52.1218,0 0,266.9835"
       id="path3000"
       style="font-size:374.97683716px;font-variant:normal;font-stretch:normal;fill:#afb0b2;font-family:Viga;-inkscape-font-specification:Viga" />
    <path
       d="m 4000.1733,1649.4659 -79.4951,0 c -29.9982,0 -51.7468,-5.7496 -65.2459,-17.2489 -13.2492,-11.7492 -19.8738,-30.748 -19.8738,-56.9965 l 0,-192.7381 52.1218,0 0,192.7381 c -1e-4,10.4994 2.3748,17.749 7.1245,21.7487 4.7497,3.9998 13.3741,5.9997 25.8734,5.9996 l 79.4951,0 0,46.4971"
       id="path3002"
       style="font-size:374.97683716px;font-variant:normal;font-stretch:normal;fill:#afb0b2;font-family:Viga;-inkscape-font-specification:Viga" />
    <path
       d="m 4244.5762,1649.4659 -54.3716,0 -14.9991,-46.1221 -89.6195,0 -14.6241,46.1221 -54.3716,0 85.4947,-244.4849 c 3.7497,-8.4992 7.8744,-14.3738 12.3742,-17.6239 4.7496,-3.2495 10.4993,-4.8744 17.249,-4.8747 6.7494,3e-4 12.1241,1.5002 16.124,4.4998 4.2496,3 7.9993,8.9997 11.2493,17.9988 l 85.4947,244.4849 m -81.37,-89.9944 -31.498,-105.7435 -32.998,105.7435 64.496,0"
       id="path3004"
       style="font-size:374.97683716px;font-variant:normal;font-stretch:normal;fill:#afb0b2;font-family:Viga;-inkscape-font-specification:Viga" />
    <path
       d="m 4482.9384,1514.8493 0.375,28.8732 c -1.0002,18.2489 -3.2501,33.623 -6.7496,46.1221 -3.5,12.4993 -10.3746,23.8736 -20.6237,34.1229 -16.9992,16.999 -41.7476,25.4984 -74.2454,25.4984 -38.2478,0 -64.4961,-4.9996 -78.7452,-14.999 -14.2491,-10.2494 -21.3737,-28.6232 -21.3737,-55.1216 l 0,-196.8629 103.8686,0 c 29.998,3e-4 53.4965,8.4998 70.4957,25.4985 13.7489,13.7493 21.8734,30.4983 24.3735,50.2469 1.7496,13.9993 2.6246,32.8731 2.6248,56.6215 m -63.3711,71.6205 c 4.7495,-5.7495 7.7494,-13.624 8.9995,-23.6235 1.4997,-10.2493 2.2496,-26.1233 2.2498,-47.6221 -2e-4,-21.4985 -0.7501,-36.9975 -2.2498,-46.4971 -1.2501,-9.7492 -4.25,-17.4987 -8.9995,-23.2486 -8.9996,-10.9991 -21.9988,-16.4987 -38.9976,-16.4989 l -46.8721,0 0,147.7408 c -1e-4,9.9995 3.3747,16.874 10.1244,20.6238 6.7495,3.7498 18.7487,5.6247 35.9978,5.6246 17.4987,10e-5 30.7479,-5.4996 39.7475,-16.499"
       id="path3006"
       style="font-size:374.97683716px;font-variant:normal;font-stretch:normal;fill:#afb0b2;font-family:Viga;-inkscape-font-specification:Viga" />
    <path
       d="m 4704.2509,1649.4659 -94.4942,0 c -29.9982,0 -51.1219,-5.1246 -63.3711,-15.374 -11.9993,-10.4993 -17.9989,-28.8732 -17.9989,-55.1216 l 0,-196.4879 175.8642,0 0,46.4972 -123.7424,0 0,62.6211 86.6197,0 -3.7498,46.4971 -82.8699,0 0,37.1227 c -1e-4,10.4994 2.3748,17.749 7.1246,21.7487 4.7496,3.9998 13.3741,5.9997 25.8734,5.9996 l 90.7444,0 0,46.4971"
       id="path3008"
       style="font-size:374.97683716px;font-variant:normal;font-stretch:normal;fill:#afb0b2;font-family:Viga;-inkscape-font-specification:Viga" />
    <path
       d="m 4920.0383,1649.4659 -79.4951,0 c -29.9982,0 -51.7468,-5.7496 -65.2459,-17.2489 -13.2493,-11.7492 -19.8738,-30.748 -19.8738,-56.9965 l 0,-192.7381 52.1218,0 0,192.7381 c -1e-4,10.4994 2.3747,17.749 7.1245,21.7487 4.7496,3.9998 13.3741,5.9997 25.8734,5.9996 l 79.4951,0 0,46.4971"
       id="path3010"
       style="font-size:374.97683716px;font-variant:normal;font-stretch:normal;fill:#afb0b2;font-family:Viga;-inkscape-font-specification:Viga" />
    <path
       d="m 5130.3184,1405.731 c 15.4988,15.2493 23.2483,37.7479 23.2485,67.4958 -2e-4,29.7483 -7.7497,52.3719 -23.2485,67.8708 -15.2493,15.2492 -36.8729,22.8737 -64.871,22.8736 l -51.3719,0 0,85.4947 -52.1217,0 0,-266.9835 103.4936,0 c 27.9981,3e-4 49.6217,7.7498 64.871,23.2486 m -28.8733,67.4958 c -1e-4,-29.4979 -12.8743,-44.247 -38.6226,-44.2472 l -48.747,0 0,88.1195 48.747,0 c 12.4991,2e-4 21.9985,-3.3746 28.4983,-10.1244 6.7494,-6.7494 10.1242,-17.9987 10.1243,-33.7479"
       id="path3012"
       style="font-size:374.97683716px;font-variant:normal;font-stretch:normal;fill:#afb0b2;font-family:Viga;-inkscape-font-specification:Viga" />
    <path
       d="m 5396.1417,1649.4659 -52.1218,0 0,-107.9933 -97.8689,0 0,107.9933 -52.1218,0 0,-266.9835 52.1218,0 0,112.8681 97.8689,0 0,-112.8681 52.1218,0 0,266.9835"
       id="path3014"
       style="font-size:374.97683716px;font-variant:normal;font-stretch:normal;fill:#afb0b2;font-family:Viga;-inkscape-font-specification:Viga" />
    <path
       d="m 5506.9651,1649.4659 -52.1218,0 0,-266.9835 52.1218,0 0,266.9835"
       id="path3016"
       style="font-size:374.97683716px;font-variant:normal;font-stretch:normal;fill:#afb0b2;font-family:Viga;-inkscape-font-specification:Viga" />
    <path
       d="m 5771.5815,1649.4659 -54.3716,0 -14.9991,-46.1221 -89.6195,0 -14.6241,46.1221 -54.3716,0 85.4947,-244.4849 c 3.7497,-8.4992 7.8744,-14.3738 12.3743,-17.6239 4.7496,-3.2495 10.4992,-4.8744 17.2489,-4.8747 6.7494,3e-4 12.1241,1.5002 16.124,4.4998 4.2496,3 7.9994,8.9997 11.2493,17.9988 l 85.4947,244.4849 m -81.37,-89.9944 -31.498,-105.7435 -32.998,105.7435 64.496,0"
       id="path3018"
       style="font-size:374.97683716px;font-variant:normal;font-stretch:normal;fill:#afb0b2;font-family:Viga;-inkscape-font-specification:Viga" />
  </g>
  <g
     id="text2998"
     style="font-size:144.07765198px;font-style:normal;font-weight:normal;line-height:125%;letter-spacing:0px;word-spacing:0px;fill:#313133;fill-opacity:1;stroke:none;font-family:Sans">
    <path
       d="m 479.40166,774.64825 0.52,40.04 c -1.38698,25.30679 -4.50698,46.62676 -9.36,63.96 -4.85364,17.3334 -14.38696,33.10671 -28.6,47.32 -23.57359,23.57334 -57.89356,35.36 -102.96,35.36 -53.04013,0 -89.44009,-6.93333 -109.2,-20.8 -19.76005,-14.2133 -29.64004,-39.69328 -29.64,-76.44 l 0,-273 144.04,0 c 41.59977,3.7e-4 74.18641,11.78702 97.76,35.36 19.06637,19.06698 30.33302,42.29362 33.8,69.68 2.42635,19.41358 3.63968,45.58688 3.64,78.52 m -87.88,99.32 c 6.58643,-7.97324 10.74642,-18.89323 12.48,-32.76 2.07975,-14.2132 3.11975,-36.22651 3.12,-66.04 -2.5e-4,-29.81312 -1.04025,-51.30643 -3.12,-64.48 -1.73358,-13.51974 -5.89357,-24.26639 -12.48,-32.24 -12.48022,-15.25304 -30.50687,-22.8797 -54.08,-22.88 l -65,0 0,204.88 c -1.1e-4,13.86675 4.67988,23.40007 14.04,28.6 9.35986,5.20006 25.99985,7.80006 49.92,7.8 24.26647,6e-5 42.63978,-7.6266 55.12,-22.88"
       id="path3042"
       style="font-size:520px;font-variant:normal;font-stretch:normal;fill:#313133;font-family:Viga;-inkscape-font-specification:Viga" />
    <path
       d="m 614.70729,961.32825 -72.28,0 0,-370.24 72.28,0 0,370.24"
       id="path3044"
       style="font-size:520px;font-variant:normal;font-stretch:normal;fill:#313133;font-family:Viga;-inkscape-font-specification:Viga" />
    <path
       d="m 981.14479,961.32825 -83.72,0 -72.28,-137.28 -52,0 0,137.28 -72.28,0 0,-290.68 c -4e-5,-27.73302 6.41328,-47.83966 19.24,-60.32 12.82659,-12.82631 34.3199,-19.23963 64.48,-19.24 l 61.36,0 c 36.74644,3.7e-4 65.86641,11.26702 87.36,33.8 21.8397,22.18698 32.75969,50.44028 32.76,84.76 -3.1e-4,24.96022 -6.58697,46.62687 -19.76,65 -12.82694,18.02683 -28.77359,30.50682 -47.84,37.44 l 82.68,149.24 m -139.88,-197.6 c 15.25313,1.9e-4 27.73312,-5.1998 37.44,-15.6 10.0531,-10.74645 15.07976,-23.91977 15.08,-39.52 -2.4e-4,-15.9464 -4.85357,-28.77305 -14.56,-38.48 -9.36021,-9.70637 -22.01353,-14.5597 -37.96,-14.56 l -35.88,0 c -21.49346,3e-4 -32.24012,10.92029 -32.24,32.76 l 0,75.4 68.12,0"
       id="path3046"
       style="font-size:520px;font-variant:normal;font-stretch:normal;fill:#313133;font-family:Viga;-inkscape-font-specification:Viga" />
    <path
       d="m 1284.9792,961.32825 -131.04,0 c -41.6002,0 -70.8935,-7.10666 -87.88,-21.32 -16.6401,-14.55997 -24.9601,-40.03994 -24.96,-76.44 l 0,-272.48 243.88,0 0,64.48 -171.6,0 0,86.84 120.12,0 -5.2,64.48 -114.92,0 0,51.48 c -2e-4,14.56009 3.2932,24.61341 9.88,30.16 6.5865,5.54673 18.5465,8.32006 35.88,8.32 l 125.84,0 0,64.48"
       id="path3048"
       style="font-size:520px;font-variant:normal;font-stretch:normal;fill:#313133;font-family:Viga;-inkscape-font-specification:Viga" />
    <path
       d="m 1543.1429,817.80825 67.08,0 c -3e-4,47.14676 -11.7869,83.37339 -35.36,108.68 -23.5736,25.30667 -56.8535,37.95999 -99.84,37.96 -94.6401,-10e-6 -141.96,-55.63995 -141.96,-166.92 l 0,-31.2 c 0,-87.70639 24.2666,-142.653 72.8,-164.84 19.0666,-9.01297 42.1199,-13.51963 69.16,-13.52 39.5198,3.7e-4 71.5864,10.92036 96.2,32.76 24.9597,21.49365 37.4397,52.69362 37.44,93.6 l -67.6,0 c -3.8135,-20.45307 -10.5735,-35.87972 -20.28,-46.28 -9.7069,-10.3997 -24.9602,-15.59969 -45.76,-15.6 -24.2668,3.1e-4 -42.2934,7.62696 -54.08,22.88 -8.3201,10.74694 -13.1734,29.12025 -14.56,55.12 -0.6934,8.32022 -1.0401,19.58688 -1.04,33.8 l 0,32.24 c -1e-4,39.86679 5.5466,67.08009 16.64,81.64 11.4399,14.56007 29.1199,21.84006 53.04,21.84 24.2665,6e-5 40.9065,-6.5866 49.92,-19.76 9.3598,-13.51991 15.4265,-34.31989 18.2,-62.4"
       id="path3050"
       style="font-size:520px;font-variant:normal;font-stretch:normal;fill:#313133;font-family:Viga;-inkscape-font-specification:Viga" />
    <path
       d="m 1912.5623,655.56825 -99.32,0 0,305.76 -72.28,0 0,-305.76 -98.8,0 0,-64.48 270.4,0 0,64.48"
       id="path3052"
       style="font-size:520px;font-variant:normal;font-stretch:normal;fill:#313133;font-family:Viga;-inkscape-font-specification:Viga" />
    <path
       d="m 2370.0242,961.32825 -75.4,0 -20.8,-63.96 -124.28,0 -20.28,63.96 -75.4,0 118.56,-339.04 c 5.1998,-11.78632 10.9198,-19.93298 17.16,-24.44 6.5865,-4.5063 14.5598,-6.75963 23.92,-6.76 9.3598,3.7e-4 16.8131,2.08037 22.36,6.24 5.8931,4.16036 11.0931,12.48035 15.6,24.96 l 118.56,339.04 m -112.84,-124.8 -43.68,-146.64 -45.76,146.64 89.44,0"
       id="path3054"
       style="font-size:520px;font-variant:normal;font-stretch:normal;fill:#313133;font-family:Viga;-inkscape-font-specification:Viga" />
    <path
       d="m 2608.5335,817.80825 67.08,0 c -3e-4,47.14676 -11.7869,83.37339 -35.36,108.68 -23.5735,25.30667 -56.8535,37.95999 -99.84,37.96 -94.64,-10e-6 -141.96,-55.63995 -141.96,-166.92 l 0,-31.2 c 0,-87.70639 24.2667,-142.653 72.8,-164.84 19.0666,-9.01297 42.1199,-13.51963 69.16,-13.52 39.5198,3.7e-4 71.5865,10.92036 96.2,32.76 24.9598,21.49365 37.4397,52.69362 37.44,93.6 l -67.6,0 c -3.8135,-20.45307 -10.5735,-35.87972 -20.28,-46.28 -9.7068,-10.3997 -24.9601,-15.59969 -45.76,-15.6 -24.2668,3.1e-4 -42.2934,7.62696 -54.08,22.88 -8.3201,10.74694 -13.1734,29.12025 -14.56,55.12 -0.6934,8.32022 -1.0401,19.58688 -1.04,33.8 l 0,32.24 c -10e-5,39.86679 5.5466,67.08009 16.64,81.64 11.4399,14.56007 29.1199,21.84006 53.04,21.84 24.2665,6e-5 40.9065,-6.5866 49.92,-19.76 9.3598,-13.51991 15.4265,-34.31989 18.2,-62.4"
       id="path3056"
       style="font-size:520px;font-variant:normal;font-stretch:normal;fill:#313133;font-family:Viga;-inkscape-font-specification:Viga" />
    <path
       d="m 2977.9529,655.56825 -99.32,0 0,305.76 -72.28,0 0,-305.76 -98.8,0 0,-64.48 270.4,0 0,64.48"
       id="path3058"
       style="font-size:520px;font-variant:normal;font-stretch:normal;fill:#313133;font-family:Viga;-inkscape-font-specification:Viga" />
    <path
       d="m 3106.0354,961.32825 -72.28,0 0,-370.24 72.28,0 0,370.24"
       id="path3060"
       style="font-size:520px;font-variant:normal;font-stretch:normal;fill:#313133;font-family:Viga;-inkscape-font-specification:Viga" />
    <path
       d="m 3463.6329,759.04825 0,28.08 c -3e-4,62.05344 -11.787,107.12006 -35.36,135.2 -23.2269,28.08001 -60.6669,42.11999 -112.32,42.12 -51.6534,-10e-6 -89.0934,-14.03999 -112.32,-42.12 -22.88,-28.07994 -34.32,-73.66656 -34.32,-136.76 l 0,-27.04 c 0,-57.54641 11.6133,-100.3597 34.84,-128.44 23.5733,-28.07964 60.6666,-42.11963 111.28,-42.12 50.9598,3.7e-4 88.3998,14.21369 112.32,42.64 23.9197,28.42697 35.8797,71.24026 35.88,128.44 m -72.28,26.52 0,-19.24 c -2e-4,-33.27977 -4.1602,-59.79975 -12.48,-79.56 -9.7069,-22.87971 -30.5069,-34.31969 -62.4,-34.32 -32.2401,3.1e-4 -53.2134,11.44029 -62.92,34.32 -7.9734,18.72025 -11.9601,45.24023 -11.96,79.56 l 0,19.24 c -1e-4,44.72013 6.2399,74.8801 18.72,90.48 4.8532,6.58674 11.9599,12.30674 21.32,17.16 9.7065,4.50673 21.1465,6.76006 34.32,6.76 13.5198,6e-5 24.9598,-2.25327 34.32,-6.76 9.3598,-4.5066 16.6398,-10.05326 21.84,-16.64 5.1998,-6.58658 9.1864,-15.25324 11.96,-26 4.8531,-16.98654 7.2798,-38.65319 7.28,-65"
       id="path3062"
       style="font-size:520px;font-variant:normal;font-stretch:normal;fill:#313133;font-family:Viga;-inkscape-font-specification:Viga" />
    <path
       d="m 3815.9492,591.08825 0,332.8 c -4e-4,11.44002 -3.467,21.32001 -10.4,29.64 -6.9337,7.97333 -15.0803,11.95999 -24.44,11.96 -23.9203,-10e-6 -43.507,-13.86666 -58.76,-41.6 l -127.92,-200.2 0,237.64 -72.28,0 0,-370.24 69.68,0 151.84,242.32 0,-242.32 72.28,0"
       id="path3064"
       style="font-size:520px;font-variant:normal;font-stretch:normal;fill:#313133;font-family:Viga;-inkscape-font-specification:Viga" />
  </g>
  <g
     id="text2998-6"
     style="font-size:144.07765198px;font-style:normal;font-weight:normal;line-height:125%;letter-spacing:0px;word-spacing:0px;fill:#313133;fill-opacity:1;stroke:none;font-family:Sans">
    <path
       d="m 5434.0415,961.32825 -131.04,0 c -41.6001,0 -70.8935,-7.10666 -87.88,-21.32 -16.6401,-14.55997 -24.9601,-40.03994 -24.96,-76.44 l 0,-272.48 243.88,0 0,64.48 -171.6,0 0,86.84 120.12,0 -5.2,64.48 -114.92,0 0,51.48 c -2e-4,14.56009 3.2932,24.61341 9.88,30.16 6.5865,5.54673 18.5465,8.32006 35.88,8.32 l 125.84,0 0,64.48"
       id="path3021"
       style="font-size:520px;font-variant:normal;font-stretch:normal;letter-spacing:36px;fill:#313133;font-family:Viga;-inkscape-font-specification:Viga" />
    <path
       d="m 5798.4052,591.08825 -116.48,349.44 c -6.2402,15.94667 -17.3335,23.91999 -33.28,23.92 -16.6401,-10e-6 -28.0801,-7.97333 -34.32,-23.92 l -114.92,-349.44 74.88,0 74.36,241.28 74.36,-241.28 75.4,0"
       id="path3023"
       style="font-size:520px;font-variant:normal;font-stretch:normal;letter-spacing:36px;fill:#313133;font-family:Viga;-inkscape-font-specification:Viga" />
    <path
       d="m 6122.5258,961.32825 -131.04,0 c -41.6001,0 -70.8934,-7.10666 -87.88,-21.32 -16.64,-14.55997 -24.96,-40.03994 -24.96,-76.44 l 0,-272.48 243.88,0 0,64.48 -171.6,0 0,86.84 120.12,0 -5.2,64.48 -114.92,0 0,51.48 c -1e-4,14.56009 3.2933,24.61341 9.88,30.16 6.5866,5.54673 18.5466,8.32006 35.88,8.32 l 125.84,0 0,64.48"
       id="path3025"
       style="font-size:520px;font-variant:normal;font-stretch:normal;letter-spacing:36px;fill:#313133;font-family:Viga;-inkscape-font-specification:Viga" />
    <path
       d="m 6509.7696,961.32825 -83.72,0 -72.28,-137.28 -52,0 0,137.28 -72.28,0 0,-290.68 c -1e-4,-27.73302 6.4133,-47.83966 19.24,-60.32 12.8266,-12.82631 34.3199,-19.23963 64.48,-19.24 l 61.36,0 c 36.7464,3.7e-4 65.8664,11.26702 87.36,33.8 21.8397,22.18698 32.7597,50.44028 32.76,84.76 -3e-4,24.96022 -6.587,46.62687 -19.76,65 -12.827,18.02683 -28.7736,30.50682 -47.84,37.44 l 82.68,149.24 m -139.88,-197.6 c 15.2531,1.9e-4 27.7331,-5.1998 37.44,-15.6 10.0531,-10.74645 15.0798,-23.91977 15.08,-39.52 -2e-4,-15.9464 -4.8536,-28.77305 -14.56,-38.48 -9.3602,-9.70637 -22.0135,-14.5597 -37.96,-14.56 l -35.88,0 c -21.4935,3e-4 -32.2401,10.92029 -32.24,32.76 l 0,75.4 68.12,0"
       id="path3027"
       style="font-size:520px;font-variant:normal;font-stretch:normal;letter-spacing:36px;fill:#313133;font-family:Viga;-inkscape-font-specification:Viga" />
    <path
       d="m 6858.444,591.08825 -111.28,218.4 0,151.84 -71.76,0 0,-151.84 -111.28,-218.4 78.52,0 69.16,149.24 68.12,-149.24 78.52,0"
       id="path3029"
       style="font-size:520px;font-variant:normal;font-stretch:normal;letter-spacing:36px;fill:#313133;font-family:Viga;-inkscape-font-specification:Viga" />
    <path
       d="m 7354.2621,591.08825 -99.32,370.24 -60.32,0 -68.12,-224.64 -68.12,224.64 -60.32,0 -98.8,-370.24 75.4,0 57.2,233.48 56.68,-192.92 c 6.2398,-28.77298 19.4131,-43.15963 39.52,-43.16 10.0531,3.7e-4 17.6797,3.8137 22.88,11.44 5.1997,7.28035 9.8797,17.85367 14.04,31.72 l 56.16,192.92 57.72,-233.48 75.4,0"
       id="path3031"
       style="font-size:520px;font-variant:normal;font-stretch:normal;letter-spacing:36px;fill:#313133;font-family:Viga;-inkscape-font-specification:Viga" />
    <path
       d="m 7711.4758,961.32825 -72.28,0 0,-149.76 -135.72,0 0,149.76 -72.28,0 0,-370.24 72.28,0 0,156.52 135.72,0 0,-156.52 72.28,0 0,370.24"
       id="path3033"
       style="font-size:520px;font-variant:normal;font-stretch:normal;letter-spacing:36px;fill:#313133;font-family:Viga;-inkscape-font-specification:Viga" />
    <path
       d="m 8072.7602,961.32825 -131.04,0 c -41.6001,0 -70.8934,-7.10666 -87.88,-21.32 -16.64,-14.55997 -24.96,-40.03994 -24.96,-76.44 l 0,-272.48 243.88,0 0,64.48 -171.6,0 0,86.84 120.12,0 -5.2,64.48 -114.92,0 0,51.48 c -1e-4,14.56009 3.2932,24.61341 9.88,30.16 6.5865,5.54673 18.5465,8.32006 35.88,8.32 l 125.84,0 0,64.48"
       id="path3035"
       style="font-size:520px;font-variant:normal;font-stretch:normal;letter-spacing:36px;fill:#313133;font-family:Viga;-inkscape-font-specification:Viga" />
    <path
       d="m 8460.004,961.32825 -83.72,0 -72.28,-137.28 -52,0 0,137.28 -72.28,0 0,-290.68 c -1e-4,-27.73302 6.4132,-47.83966 19.24,-60.32 12.8266,-12.82631 34.3199,-19.23963 64.48,-19.24 l 61.36,0 c 36.7464,3.7e-4 65.8664,11.26702 87.36,33.8 21.8397,22.18698 32.7597,50.44028 32.76,84.76 -3e-4,24.96022 -6.587,46.62687 -19.76,65 -12.827,18.02683 -28.7736,30.50682 -47.84,37.44 l 82.68,149.24 m -139.88,-197.6 c 15.2531,1.9e-4 27.7331,-5.1998 37.44,-15.6 10.0531,-10.74645 15.0797,-23.91977 15.08,-39.52 -3e-4,-15.9464 -4.8536,-28.77305 -14.56,-38.48 -9.3602,-9.70637 -22.0136,-14.5597 -37.96,-14.56 l -35.88,0 c -21.4935,3e-4 -32.2402,10.92029 -32.24,32.76 l 0,75.4 68.12,0"
       id="path3037"
       style="font-size:520px;font-variant:normal;font-stretch:normal;letter-spacing:36px;fill:#313133;font-family:Viga;-inkscape-font-specification:Viga" />
    <path
       d="m 8799.8383,961.32825 -131.04,0 c -41.6001,0 -70.8934,-7.10666 -87.88,-21.32 -16.64,-14.55997 -24.96,-40.03994 -24.96,-76.44 l 0,-272.48 243.88,0 0,64.48 -171.6,0 0,86.84 120.12,0 -5.2,64.48 -114.92,0 0,51.48 c -1e-4,14.56009 3.2933,24.61341 9.88,30.16 6.5866,5.54673 18.5466,8.32006 35.88,8.32 l 125.84,0 0,64.48"
       id="path3039"
       style="font-size:520px;font-variant:normal;font-stretch:normal;letter-spacing:36px;fill:#313133;font-family:Viga;-inkscape-font-specification:Viga" />
  </g>
  <g
     id="g3037"
     transform="matrix(0.81947636,0,0,0.81947636,3918.8922,107.05901)">
    <path
       style="fill:#5f5f5f;fill-opacity:1"
       d="m 829.35594,161.11571 c 2.4958,-7.93217 4.14854,-16.19015 4.13678,-24.95781 -0.2381,-46.117471 -37.79548,-83.302871 -83.91292,-83.064871 -46.1174,0.23822 -83.30313,37.7953 -83.06503,83.912761 -0.0132,11.05207 2.34715,21.61754 6.2749,31.24701 32.46648,-15.54154 89.33413,-32.17313 156.56627,-7.13709 z"
       id="path8-4"
       inkscape:connector-curvature="0" />
    <path
       style="fill:#5f5f5f;fill-opacity:1"
       d="m 750.44705,1446.9068 c 54.88546,-0.2513 99.26882,-41.9401 105.11566,-95.1607 l -211.119,1.017 c 6.38495,53.1233 51.17975,94.4126 106.00334,94.1437 z"
       id="path10-4"
       inkscape:connector-curvature="0" />
    <path
       sodipodi:nodetypes="ssccscsccs"
       style="fill:#5f5f5f;fill-opacity:1"
       id="path6-5"
       d="m 761.10934,201.43721 c -11.77524,0.089 -22.26233,-0.0265 -32.15625,0.125 -119.14592,1.82398 -223.00176,62.8231 -282.50001,156.28125 -7.04465,14.61295 -14.31413,29.93951 -14.31413,29.93951 0,0 87.01961,69.22525 122.98906,115.43817 54.63307,70.19161 156.18648,231.04999 196.92814,312.35865 0,0 119.96818,-232.35297 188.54374,-307.3019 40.85288,-44.64972 124.96751,-108.36236 124.96751,-108.36236 0,0 -6.1307,-18.9538 -16.8647,-39.29032 -59.7981,-96.01774 -166.04855,-160.10653 -287.59336,-159.188 z"
       inkscape:connector-curvature="0" />
    <path
       sodipodi:nodetypes="sccscs"
       style="fill:#5f5f5f;fill-opacity:1"
       id="path6-4"
       d="m 604.83848,1050.5149 c -85.88904,109.2504 -166.72539,259.3399 -289.63541,275.9223 142.75097,-0.6005 595.83973,-1.6723 852.18753,-2.8125 -54.4632,-14.2098 -143.7581,-123.2431 -228.72721,-214.2365 C 844.73472,1008.8001 751.9044,803.38976 751.9044,803.38976 c 0,0 -97.04028,183.49278 -147.06592,247.12514 z"
       inkscape:connector-curvature="0" />
    <g
       transform="matrix(1.1724073,0,0,1.1724073,163.74025,234.38321)"
       id="g3010">
      <path
         sodipodi:nodetypes="ssssssssscccccccssssssscccsssscssccsccsccssscccsccsccscsssssssscsccsscccscccssscsccc"
         inkscape:connector-curvature="0"
         id="path3014-6-5"
         transform="matrix(0.8529459,0,0,0.8529459,-139.66157,-199.9162)"
         d="m 1219.5,311.9375 c -9.8433,-0.0227 -34.4086,2.46882 -51,5.21875 -73.1769,12.12868 -144.7369,49.73268 -207.53125,109.0625 -65.35233,61.74665 -122.24173,138.8862 -193.375,262.1875 -9.20707,15.95939 -17.16158,29 -17.6875,29 -0.52593,0 -3.22581,-4.06511 -5.96875,-9.0625 -9.06007,-16.50662 -39.18002,-67.37662 -52.375,-88.4375 C 617.38622,501.51141 549.69457,424.96159 475.59375,375.6875 432.2153,346.84257 390.51479,329.04693 343.71875,319.40625 325.42474,315.63741 289.59752,311.53771 279,312 l -8,0.34375 -0.875,53.34375 c -0.81899,48.54331 -0.76849,487.67266 -0.25,755.3437 -37.05616,41.7385 -68.15625,41.9063 -68.15625,41.9063 l 0.625,164.7187 c 54.46444,-0.9832 86.85714,6.6107 140.96875,-5.9374 113.18795,-23.8983 213.47174,-105.9189 314.9375,-257.5626 26.13125,-39.0539 61.51991,-97.02691 85.09375,-139.4062 2.38701,-4.29117 5.0545,-8.39218 5.9375,-9.125 1.3013,-1.07999 4.11927,3.06736 14.84375,21.875 51.06926,89.5607 99.54856,162.5948 141,212.4375 72.81948,87.5607 145.4683,140.9639 224.25,164.8437 26.9915,8.1816 70.6542,14.7682 90.125,14.4063 21.5138,-0.3998 21.6439,-0.01 78.7812,-0.2813 l -0.7187,-171.2187 c 0,0 -30.7349,-2.8322 -67.9063,-43.515 -0.1287,-1.8305 -0.2801,-0.078 -0.4374,-0.235 -2.0176,-2.0176 -85.4512,-2.0176 -87.4688,0 -1.0566,1.0566 -1.4062,15.9332 -1.4062,59.7813 0,51.3965 -0.2163,58.375 -1.7813,58.375 -5.6294,0 -48.1348,-22.9347 -50.9687,-27.5 -0.9576,-1.5426 -6.1512,-7.9792 -11.5313,-14.3126 -33.0868,-38.9488 -49.8263,-80.413 -57.1563,-141.6562 -2.2483,-18.786 -3.7308,-127.78529 -2.25,-165.59375 l 0.8438,-21.40625 46.5312,0 c 34.6305,0 46.8906,-0.35927 47.9376,-1.40625 2.019,-2.01905 2.019,-88.9497 0,-90.96875 -1.047,-1.04695 -13.2776,-1.40625 -47.875,-1.40625 l -46.5,0 -0.75,-7.9375 c -1.2306,-13.02908 -0.8614,-130.40522 0.4687,-148.96875 5.2218,-72.87528 22.2904,-119.0047 60.8437,-164.375 8.7614,-10.31049 12.8008,-14.05119 19.1876,-17.78125 10.3346,-6.03573 37.9135,-19.3512 42.1874,-20.375 l 3.25,-0.78125 -0.5937,16.84375 c -0.3404,9.26496 -0.9197,42.09054 -1.2813,72.9375 -0.4922,41.99208 -0.31,56.47911 0.7188,57.71875 1.8631,2.24486 85.3605,2.48322 87.5938,0.25 1.535,-1.53501 1.7564,-117.94517 0.375,-200.21875 L 1228.875,312.34375 1221.25,312 c -0.5187,-0.0244 -1.0938,-0.061 -1.75,-0.0625 z M 362.96875,410.125 c 4.58152,-0.49909 47.07693,21.17443 49.90625,25.625 0.64482,1.01432 4.15296,5.18125 7.8125,9.28125 40.46681,45.33732 58.78819,96.45705 62.9375,175.65625 1.59773,30.49642 0.79489,400.0577 -0.90625,417.375 -4.80516,48.9154 -12.55034,77.9963 -29.53125,110.8125 -7.84475,15.1603 -17.11113,28.5766 -31.8125,46.0938 -10.76649,12.8286 -16.00717,16.5954 -39.40625,28.2812 -14.60156,7.2922 -16.54289,7.9915 -17.125,6.1875 -0.96789,-2.9995 -3.17609,-818.3001 -2.21875,-819.21875 0.0663,-0.0636 0.19596,-0.0777 0.34375,-0.0937 z m 572.5,185.40625 c 0.48362,-0.0245 0.875,100.47353 0.875,223.3125 0,122.83897 -0.23286,223.31245 -0.53125,223.31245 -2.14743,0 -41.72782,-64.01661 -67.75,-109.5937 -15.10573,-26.45726 -55.97801,-100.36667 -61.125,-110.53125 l -3.125,-6.1875 15.4375,-27.8125 c 40.79049,-73.47636 68.68077,-120.97431 94.8125,-161.46875 16.24129,-25.16794 20.23689,-30.97204 21.40625,-31.03125 z m -365.1875,8.1875 c 1.82103,0.0575 32.01088,47.51232 54.8125,86.15625 C 647.29047,727.49374 696,814.38789 696,816.34375 c 0,1.21661 -38.03481,70.52588 -58.3125,106.25 -19.839,34.95126 -38.70636,66.66071 -53.34375,89.68745 -5.73851,9.0276 -11.09045,17.1001 -11.90625,17.9376 -1.19638,1.228 -1.62096,-27.5802 -2.25,-148.9063 -1.01579,-195.90733 -0.99142,-277.62798 0.0937,-277.59375 z"
         style="fill:#afb0b2;fill-opacity:1" />
      <path
         sodipodi:nodetypes="ccsccccccccccccccccsssscccccsccccccssccccssccsccsccssccccsscscccc"
         id="path3014-9"
         d="m 833.80986,148.08951 c 3.03354,-1.14481 0.8397,11.60905 0.75,14.03125 -0.2904,7.90251 -0.7854,35.90796 -1.0938,62.21875 -0.4198,35.81697 -0.2838,48.19265 0.5938,49.25 1.5891,1.91474 72.8451,2.12357 74.75,0.21875 1.1324,-1.13243 1.4237,-75.564 0.7187,-141.0625 -34.00228,-1.80452 -55.50266,1.93624 -75.7187,15.34375 z M 90.559856,132.02701 c -0.6132,108.42618 -1.009824,557.86256 -0.384424,730.23438 11.067158,3.64568 24.628518,5.48108 33.665628,4.17187 16.05288,-1.80471 33.61085,-6.2599 49.125,-17.03125 -0.9172,0.15696 -1.2597,-0.10512 -1.4375,-0.65625 -0.8256,-2.55842 -2.6916,-697.96644 -1.875,-698.75 0.098,-0.0941 0.3227,-0.11903 0.625,-0.0937 -27.43146,-14.26754 -49.75293,-17.20985 -79.718704,-17.875 z m 122.000004,39.4375 c -0.1,0.002 -0.1844,0.0259 -0.2813,0.0312 0.075,0.0881 0.1702,0.17357 0.2188,0.25 0.55,0.86516 3.5661,4.44042 6.6875,7.9375 34.516,38.67028 50.1171,82.25987 53.6562,149.8125 1.3628,26.0118 0.701,341.22931 -0.75,356 -4.0985,41.72222 -10.7037,66.50952 -25.1875,94.5 -6.6911,12.93089 -14.6168,24.40257 -27.1562,39.34375 -1.4432,1.71956 -2.7735,3.23102 -4.0625,4.625 0.9933,1.625 3.9857,2.01215 11.9375,-3.8125 51.59645,-37.76622 101.30185,-92.15861 121.6875,-142.3125 -0.3326,0.46287 -0.5988,0.84555 -0.7188,0.96875 -1.0204,1.04749 -1.4009,-23.51544 -1.9375,-127 -0.8285,-159.78263 -0.8409,-230.48218 -0.031,-236.34375 -27.84296,-54.88729 -82.04552,-106.0831 -120.4375,-137.46875 -4.36501,-2.62951 -8.17363,-6.59089 -13.625,-6.53125 z m 444.625,137.4375 c 0.4993,-0.55348 0.8524,-0.86436 1.0625,-0.875 0.4125,-0.0209 0.75,85.69375 0.75,190.46875 0,104.775 -0.2143,190.5 -0.4688,190.5 -0.1346,0 -0.4749,-0.37493 -0.9375,-0.9375 13.55052,26.20206 32.54737,49.63281 51.625,71.9375 6.24872,8.08647 71.25066,73.81039 76.3125,67.9688 0.1,-0.16138 0.659,-0.90246 1.3438,-1.9375 -1.7518,-2.30629 -5.1541,-6.52253 -8.7188,-10.71875 -28.2213,-33.22123 -42.498,-68.57538 -48.75,-120.8125 -1.9177,-16.02345 -3.1693,-109.00143 -1.9062,-141.25 l 0.7187,-18.25 39.6875,0 c 29.5379,0 40.0132,-0.29448 40.9063,-1.1875 1.7221,-1.72214 1.7221,-75.87161 0,-77.59375 -0.893,-0.89299 -11.3653,-1.21875 -40.875,-1.21875 l -39.6563,0 -0.625,-6.75 c -1.0495,-11.1131 -0.7283,-111.22881 0.4063,-127.0625 4.4539,-62.15867 19.0223,-101.52034 51.9062,-140.21875 2.9722,-3.49771 5.2997,-6.08072 7.375,-8.15625 -53.9115,20.23023 -116.73215,115.63425 -130.1562,136.0937 z m 214.3125,440 c -18.2198,0 -36.4521,0.45205 -37.3125,1.3125 -0.9012,0.9012 -1.1875,13.6 -1.1875,51 0,43.83847 -0.1652,49.78125 -1.5,49.78125 -0.092,0 -0.2299,-0.0173 -0.3438,-0.0312 3.0372,3.39429 26.2774,12.48402 44.8438,15.5625 7.1129,1.17942 29.04277,1.19473 35.34057,0.17656 0.6843,-60.52745 -1.09721,-115.35971 -2.22651,-116.48906 -0.8605,-0.86045 -19.39436,-1.3125 -37.61406,-1.3125 z"
         style="fill:#313133;fill-opacity:1"
         inkscape:connector-curvature="0" />
    </g>
  </g>
</svg>
